<svg xmlns="http://www.w3.org/2000/svg" viewBox="0 0 477.534 477.534" fill="#fff"><path d="M438.482 58.61c-24.7-26.55-59.31-41.655-95.573-41.71-36.292.04-70.94 15.14-95.677 41.693l-8.43 8.91-8.432-8.91C181.285 5.763 98.663 2.728 45.833 51.815c-2.34 2.176-4.602 4.436-6.778 6.778-52.072 56.166-52.072 142.968 0 199.134l187.358 197.58c6.482 6.844 17.284 7.137 24.127.655.223-.212.44-.43.653-.654l187.29-197.58c52.068-56.16 52.068-142.958 0-199.118zm-24.695 175.616h-.017L238.802 418.768 63.818 234.226c-39.78-42.916-39.78-109.233 0-152.15 36.125-39.153 97.152-41.608 136.306-5.483 1.9 1.754 3.73 3.583 5.484 5.484l20.804 21.948c6.856 6.812 17.925 6.812 24.78 0l20.805-21.93c36.125-39.155 97.152-41.61 136.306-5.485 1.9 1.754 3.73 3.583 5.484 5.484 40.126 42.984 40.42 109.422 0 152.132z"/></svg>