<svg xmlns="http://www.w3.org/2000/svg" viewBox="0 0 477.389 477.389" fill="#fff"><path d="M451.21 68.647c-16.788-16.8-39.565-26.234-63.313-26.226-23.74-.055-46.516 9.377-63.266 26.198L209.057 184.194c-22.867 22.903-31.61 56.356-22.87 87.518 2.56 9.072 11.99 14.352 21.06 11.793 9.073-2.56 14.353-11.988 11.794-21.06-5.388-19.27.018-39.95 14.148-54.118l115.575-115.56c21.608-21.612 56.646-21.616 78.26-.007 21.612 21.608 21.616 56.646.008 78.26L311.457 286.593c-7.574 7.584-17.193 12.797-27.682 15.002-9.228 1.92-15.15 10.96-13.23 20.187 1.652 7.935 8.657 13.613 16.762 13.588 1.193.002 2.383-.124 3.55-.374 16.95-3.575 32.494-12.007 44.732-24.27L451.164 195.17c34.95-34.927 34.97-91.572.045-126.523zM290.702 206.142c-2.56-9.072-11.988-14.352-21.06-11.793s-14.352 11.987-11.793 21.06c5.387 19.27-.02 39.95-14.15 54.117L128.126 385.103c-21.608 21.613-56.646 21.617-78.26.008-21.612-21.607-21.616-56.645-.008-78.258L165.433 191.26c7.562-7.583 17.17-12.796 27.648-15.003 9.244-1.85 15.238-10.84 13.39-20.082s-10.84-15.237-20.083-13.388l-.337.07c-16.954 3.58-32.502 12.012-44.75 24.27L25.726 282.703c-34.676 35.21-34.242 91.865.97 126.54 34.826 34.298 90.73 34.302 125.562.01l115.575-115.594c22.868-22.904 31.61-56.357 22.87-87.518z"/></svg>