<?xml version="1.0" encoding="UTF-8"?><!DOCTYPE svg PUBLIC "-//W3C//DTD SVG 1.1//EN" "http://www.w3.org/Graphics/SVG/1.1/DTD/svg11.dtd"><svg xmlns="http://www.w3.org/2000/svg" xmlns:xlink="http://www.w3.org/1999/xlink"><defs><style>.cls-1{fill:#000;fill-rule:evenodd}</style></defs><symbol id="down-arrow" viewBox="0 0 512.011 512.011"><path d="M505.755 123.592c-8.341-8.341-21.824-8.341-30.165 0L256.005 343.176 36.421 123.592c-8.341-8.341-21.824-8.341-30.165 0s-8.341 21.824 0 30.165l234.667 234.667a21.275 21.275 0 0 0 15.083 6.251 21.275 21.275 0 0 0 15.083-6.251l234.667-234.667c8.34-8.341 8.34-21.824-.001-30.165z"/></symbol><symbol id="down" viewBox="0 0 22 31" preserveAspectRatio="xMidYMid"><path d="M21.89 17.296l-2.509-3.774a.637.637 0 0 0-1.062 0l-2.509 3.774a.667.667 0 0 0-.036.674.64.64 0 0 0 .567.348h1.238c-.534 2.247-2.748 4.048-5.083 4.613V8.466h1.995c.551 0 .997-.456.997-1.018s-.446-1.018-.997-1.018h-1.028a3.726 3.726 0 0 0 1.176-2.717c0-2.048-1.633-3.715-3.639-3.715-2.007 0-3.64 1.667-3.64 3.715A3.73 3.73 0 0 0 8.536 6.43H7.509c-.551 0-.997.456-.997 1.018s.446 1.018.997 1.018h1.995v14.465c-2.335-.565-4.55-2.365-5.084-4.613h1.239a.642.642 0 0 0 .567-.348.665.665 0 0 0-.037-.674L3.68 13.522a.636.636 0 0 0-1.061 0L.11 17.296a.665.665 0 0 0-.036.674.64.64 0 0 0 .567.348H1.99c.503 3.495 3.455 7.06 6.78 8.238l-.249.312a.664.664 0 0 0-.038.774l1.981 3.063a.64.64 0 0 0 .536.294.637.637 0 0 0 .535-.294l1.981-3.063a.663.663 0 0 0-.038-.774l-.248-.312c3.324-1.178 6.277-4.743 6.779-8.238h1.35a.64.64 0 0 0 .567-.348.667.667 0 0 0-.036-.674zM11 2.034c.907 0 1.645.753 1.645 1.679S11.907 5.392 11 5.392s-1.645-.753-1.645-1.679.738-1.679 1.645-1.679z" class="cls-1"/></symbol><symbol id="facebook-logo" viewBox="0 0 96.124 96.123"><path d="M72.089.02L59.624 0C45.62 0 36.57 9.285 36.57 23.656v10.907H24.037a1.96 1.96 0 0 0-1.96 1.961v15.803a1.96 1.96 0 0 0 1.96 1.96H36.57v39.876a1.96 1.96 0 0 0 1.96 1.96h16.352a1.96 1.96 0 0 0 1.96-1.96V54.287h14.654a1.96 1.96 0 0 0 1.96-1.96l.006-15.803a1.963 1.963 0 0 0-1.961-1.961H56.842v-9.246c0-4.444 1.059-6.7 6.848-6.7l8.397-.003a1.96 1.96 0 0 0 1.959-1.96V1.98A1.96 1.96 0 0 0 72.089.02z"/></symbol><symbol id="heart" viewBox="0 -28 512.001 512"><path d="M256 455.516c-7.29 0-14.316-2.641-19.793-7.438-20.684-18.086-40.625-35.082-58.219-50.074l-.09-.078c-51.582-43.957-96.125-81.918-127.117-119.313C16.137 236.81 0 197.172 0 153.871c0-42.07 14.426-80.883 40.617-109.293C67.121 15.832 103.488 0 143.031 0c29.555 0 56.621 9.344 80.446 27.77C235.5 37.07 246.398 48.453 256 61.73c9.605-13.277 20.5-24.66 32.527-33.96C312.352 9.344 339.418 0 368.973 0c39.539 0 75.91 15.832 102.414 44.578C497.578 72.988 512 111.801 512 153.871c0 43.3-16.133 82.938-50.777 124.738-30.993 37.399-75.532 75.356-127.106 119.309-17.625 15.016-37.597 32.039-58.328 50.168a30.046 30.046 0 0 1-19.789 7.43zM143.031 29.992c-31.066 0-59.605 12.399-80.367 34.914-21.07 22.856-32.676 54.45-32.676 88.965 0 36.418 13.535 68.988 43.883 105.606 29.332 35.394 72.961 72.574 123.477 115.625l.093.078c17.66 15.05 37.68 32.113 58.516 50.332 20.961-18.254 41.012-35.344 58.707-50.418 50.512-43.051 94.137-80.223 123.469-115.617 30.344-36.618 43.879-69.188 43.879-105.606 0-34.516-11.606-66.11-32.676-88.965-20.758-22.515-49.3-34.914-80.363-34.914-22.758 0-43.653 7.235-62.102 21.5-16.441 12.719-27.894 28.797-34.61 40.047-3.452 5.785-9.53 9.238-16.261 9.238s-12.809-3.453-16.262-9.238c-6.71-11.25-18.164-27.328-34.61-40.047-18.448-14.265-39.343-21.5-62.097-21.5zm0 0"/></symbol><symbol id="instagram-symbol" viewBox="0 0 438.536 438.536"><path d="M421.981 16.562C410.941 5.519 397.711 0 382.298 0H56.248C40.83 0 27.604 5.521 16.561 16.562 5.52 27.6.001 40.828.001 56.243V382.29c0 15.413 5.518 28.644 16.56 39.683 11.043 11.04 24.272 16.563 39.687 16.563h326.046c15.41 0 28.644-5.523 39.684-16.563 11.043-11.039 16.557-24.27 16.557-39.683V56.243c-.001-15.418-5.514-28.639-16.554-39.681zM157.462 158.025c17.224-16.652 37.924-24.982 62.097-24.982 24.36 0 45.153 8.33 62.381 24.982 17.228 16.655 25.837 36.785 25.837 60.386 0 23.598-8.609 43.729-25.837 60.379-17.228 16.659-38.014 24.988-62.381 24.988-24.172 0-44.87-8.336-62.097-24.988-17.228-16.652-25.841-36.781-25.841-60.379 0-23.601 8.613-43.73 25.841-60.386zm231.403 212.564c0 4.945-1.718 9.083-5.141 12.416-3.433 3.33-7.519 4.996-12.282 4.996h-305.2c-4.948 0-9.091-1.666-12.419-4.996-3.333-3.326-4.998-7.471-4.998-12.416V185.575H89.08c-3.805 11.993-5.708 24.462-5.708 37.402 0 36.553 13.322 67.715 39.969 93.511 26.65 25.786 58.721 38.685 96.217 38.685 24.744 0 47.583-5.903 68.527-17.703 20.937-11.807 37.486-27.839 49.676-48.112 12.183-20.272 18.274-42.4 18.274-66.38 0-12.94-1.91-25.406-5.715-37.402h38.547V370.59h-.002zm0-254.963c0 5.52-1.903 10.184-5.716 13.99-3.805 3.809-8.466 5.711-13.989 5.711h-49.676c-5.517 0-10.185-1.903-13.99-5.711-3.806-3.806-5.708-8.47-5.708-13.99V68.522c0-5.33 1.902-9.945 5.708-13.848 3.806-3.901 8.474-5.854 13.99-5.854h49.676c5.523 0 10.185 1.952 13.989 5.854 3.812 3.903 5.716 8.518 5.716 13.848v47.104z"/></symbol><symbol id="left-arrowhead" viewBox="0 0 556.424 556.424"><path d="M508.094 13.5c3.726-7.457-.007-13.5-8.345-13.5H293.976c-19.045.006-44.079 38.363-56.512 52.262-21.87 24.449-186.59 207.547-187.783 209.934-3.727 7.458-3.727 19.544 0 27.001l222.456 253.726c3.727 7.458 13.507 13.501 21.843 13.501h205.77c8.335 0 12.071-6.043 8.345-13.501L285.638 289.197c-3.728-7.457-3.728-19.544 0-27.001L508.094 13.5z"/></symbol><symbol id="letter" viewBox="-17 -101 560 560"><path d="M462.5-5.582h-400C27.988-5.57.016 22.406 0 56.918v233.371c.016 34.512 27.988 62.492 62.5 62.5h400c34.512-.008 62.484-27.988 62.5-62.5V56.918c-.016-34.512-27.988-62.488-62.5-62.5zm-400 25h400c18.004.047 33.453 12.824 36.875 30.496L262.5 181.918 25.625 49.914c3.422-17.672 18.871-30.45 36.875-30.496zm400 308.25h-400c-20.684-.063-37.441-16.816-37.5-37.5v-212l231.375 128.996a13.17 13.17 0 0 0 6.125 1.629c2.152.023 4.266-.54 6.125-1.629L500 78.168v212c-.016 20.703-16.797 37.48-37.5 37.5zm0 0"/></symbol><symbol id="light-bulb" viewBox="0 0 512 512"><path d="M371.96 47.791C340.612 16.663 299.015-.278 254.814.003c-37.233.263-73.697 13.445-102.675 37.119-3.208 2.621-3.684 7.345-1.063 10.553s7.346 3.684 10.553 1.063c26.337-21.516 59.468-33.497 93.29-33.735 40.167-.334 77.981 15.141 106.471 43.432 28.494 28.293 44.186 65.988 44.186 106.141 0 20.547-4.089 40.449-12.154 59.152a7.5 7.5 0 0 0 13.774 5.94c8.878-20.59 13.379-42.49 13.379-65.092.002-44.179-17.264-85.654-48.615-116.785z"/><path d="M389.409 247.858a7.5 7.5 0 0 0-10.438 1.885 151.534 151.534 0 0 1-3.654 5.038c-23.898 31.551-37.059 71.345-37.059 112.051a6.758 6.758 0 0 1-6.75 6.75h-43.211V255.42c0-15.533 3.496-31.173 10.108-45.229l39.048-82.998a7.5 7.5 0 0 0-13.573-6.385l-10.465 22.244c-.075-.049-.145-.103-.222-.149-35.277-21.166-79.107-21.166-114.385 0-.077.046-.147.1-.222.149l-10.465-22.244a7.501 7.501 0 0 0-13.574 6.385l39.048 82.998c6.613 14.056 10.108 29.696 10.108 45.229v118.162h-43.211a6.757 6.757 0 0 1-6.749-6.75v-1.372c0-40.124-13.01-79.233-36.634-110.122-20.517-26.827-31.122-58.919-30.67-92.807.461-34.627 13.168-68.291 35.778-94.791a7.502 7.502 0 0 0-.837-10.574 7.502 7.502 0 0 0-10.574.837C105.928 87.161 91.948 124.212 91.44 162.33c-.497 37.283 11.175 72.595 33.754 102.119 21.635 28.288 33.549 64.16 33.549 101.009v1.372c0 10.404 7.345 19.121 17.121 21.249a29.753 29.753 0 0 0-4.299 15.44c0 8.928 3.932 16.95 10.15 22.44-6.218 5.49-10.15 13.512-10.15 22.44 0 16.284 13.07 29.564 29.269 29.922l3.838 19.192c1.679 8.393 9.11 14.484 17.669 14.484h67.318c8.559 0 15.99-6.092 17.669-14.485l3.838-19.191c16.199-.359 29.269-13.638 29.269-29.922 0-8.928-3.932-16.95-10.151-22.44 6.218-5.49 10.151-13.512 10.151-22.44a29.753 29.753 0 0 0-4.299-15.44c9.776-2.128 17.121-10.845 17.121-21.249 0-37.457 12.081-74.034 34.016-102.995a165.532 165.532 0 0 0 4.02-5.542 7.498 7.498 0 0 0-1.884-10.435zm-184.504-91.374a7.491 7.491 0 0 0 1.62-.72c30.517-18.311 68.433-18.311 98.949 0a7.445 7.445 0 0 0 1.623.715l-22.265 47.326c-7.546 16.041-11.535 33.889-11.535 51.615v3.746h-34.594v-3.746c0-17.726-3.989-35.574-11.535-51.615zm33.798 117.682h34.594v99.416h-34.594zM289.659 497h-67.318a3.026 3.026 0 0 1-2.96-2.426l-3.247-16.233h79.731l-3.246 16.232a3.027 3.027 0 0 1-2.96 2.427zm35.776-48.599c0 8.238-6.702 14.939-14.939 14.939H201.504c-8.238 0-14.939-6.702-14.939-14.939 0-8.238 6.702-14.94 14.939-14.94h108.992c8.238 0 14.939 6.702 14.939 14.94zm-123.931-29.94c-8.238 0-14.939-6.702-14.939-14.94s6.702-14.939 14.939-14.939h108.992c8.238 0 14.939 6.702 14.939 14.939 0 8.238-6.702 14.94-14.939 14.94z"/></symbol><symbol id="linkedin" viewBox="0 0 24 24"><path d="M23.994 24v-.001H24v-8.802c0-4.306-.927-7.623-5.961-7.623-2.42 0-4.044 1.328-4.707 2.587h-.07V7.976H8.489v16.023h4.97v-7.934c0-2.089.396-4.109 2.983-4.109 2.549 0 2.587 2.384 2.587 4.243V24zM.396 7.977h4.976V24H.396zM2.882 0C1.291 0 0 1.291 0 2.882s1.291 2.909 2.882 2.909 2.882-1.318 2.882-2.909A2.884 2.884 0 0 0 2.882 0z"/></symbol><symbol id="map-pin" viewBox="0 0 368.553 368.553"><path d="M184.277 0c-71.683 0-130 58.317-130 130 0 87.26 119.188 229.855 124.263 235.883a7.498 7.498 0 0 0 5.705 2.67h.032a7.5 7.5 0 0 0 5.696-2.621c5.075-5.926 124.304-146.165 124.304-235.932-.001-71.683-58.317-130-130-130zm.045 349.251C160.385 319.48 69.277 201.453 69.277 130c0-63.411 51.589-115 115-115s115 51.589 115 115c-.001 73.49-90.95 189.829-114.955 219.251z"/><path d="M184.277 72.293c-30.476 0-55.269 24.793-55.269 55.269s24.793 55.269 55.269 55.269 55.269-24.793 55.269-55.269-24.793-55.269-55.269-55.269zm0 95.537c-22.204 0-40.269-18.064-40.269-40.269s18.064-40.269 40.269-40.269 40.269 18.064 40.269 40.269-18.066 40.269-40.269 40.269z"/></symbol><symbol id="mouse" viewBox="0 0 473.3 473.3"><path d="M261.45 124.7h-14.4l.1-13.2c.2-22.5 18.5-40.6 41-40.6 33.6 0 60.9-27.3 61-60.9 0-5.5-4.5-10-10-10s-10 4.5-10 10c0 22.6-18.4 41-41 41-33.4 0-60.6 26.9-61 60.4l-.2 13.3h-15.1c-51.4 0-93.2 42.2-93.2 93.7v136.8c0 65.1 52.9 118.1 118 118.1s118-53 118-118.1V218.4c0-51.5-41.8-93.7-93.2-93.7zm-122.8 93.7c0-40.5 32.8-73.7 73.2-73.7h14.8v109h-88v-35.3zm196 136.8c0 54.1-43.9 98-98 98s-98-43.9-98-98v-81.5h196v81.5zm0-101.5h-88v-109h14.8c40.4 0 73.2 33.2 73.2 73.7v35.3z"/></symbol><symbol id="outline" viewBox="0 0 326.7 326.7"><path d="M326.7 255.601l-1.767-1.34h1.767V71.099H0v183.162h1.727L0 255.601h326.7zm-293.388-12.14l94.634-73.285 33.605 26.024 34.425-26.077 96.815 73.338H33.312zM315.9 81.899v161.562h-5.221L204.92 163.352l107.52-81.453h3.46zm-21.341 0l-98.582 74.677-8.938 6.771-25.41 19.243-24.856-19.243-8.82-6.832-96.368-74.616h262.974zm-283.759 0h3.148l105.182 81.448-103.455 80.114H10.8V81.899z"/></symbol><symbol id="paint-roller" viewBox="0 0 463 463"><path d="M423.5 40h-.5v-8.5C423 14.131 408.869 0 391.5 0h-288C86.131 0 72 14.131 72 31.5V40h-.5C58.542 40 48 50.542 48 63.5V72h-.5C30.131 72 16 86.131 16 103.5v64c0 17.369 14.131 31.5 31.5 31.5h176c9.098 0 16.5 7.402 16.5 16.5V232h-8.5c-12.958 0-23.5 10.542-23.5 23.5v168c0 21.78 17.72 39.5 39.5 39.5s39.5-17.72 39.5-39.5v-168c0-12.958-10.542-23.5-23.5-23.5H255v-16.5c0-17.369-14.131-31.5-31.5-31.5h-176c-9.098 0-16.5-7.402-16.5-16.5v-64C31 94.402 38.402 87 47.5 87h.5v8.5c0 12.958 10.542 23.5 23.5 23.5h.5v8.5c0 17.369 14.131 31.5 31.5 31.5h288c17.369 0 31.5-14.131 31.5-31.5V119h.5c12.958 0 23.5-10.542 23.5-23.5v-32c0-12.958-10.542-23.5-23.5-23.5zm-176 408c-13.509 0-24.5-10.99-24.5-24.5V279h49v144.5c0 13.51-10.991 24.5-24.5 24.5zM272 255.5v8.5h-49v-8.5c0-4.687 3.813-8.5 8.5-8.5h32c4.687 0 8.5 3.813 8.5 8.5zM71.5 104c-4.687 0-8.5-3.813-8.5-8.5v-32c0-4.687 3.813-8.5 8.5-8.5h.5v49h-.5zM408 127.5c0 9.098-7.402 16.5-16.5 16.5h-288c-9.098 0-16.5-7.402-16.5-16.5v-96c0-9.098 7.402-16.5 16.5-16.5h288c9.098 0 16.5 7.402 16.5 16.5v96zm24-32c0 4.687-3.813 8.5-8.5 8.5h-.5V55h.5c4.687 0 8.5 3.813 8.5 8.5v32z"/><path d="M247.5 416a7.51 7.51 0 0 0-7.5 7.5c0 1.97.8 3.91 2.2 5.3 1.39 1.4 3.33 2.2 5.3 2.2 1.97 0 3.91-.8 5.3-2.2 1.4-1.4 2.2-3.33 2.2-5.3 0-1.971-.8-3.91-2.2-5.3a7.528 7.528 0 0 0-5.3-2.2z"/></symbol><symbol id="phone" viewBox="0 0 512.021 512.021"><path d="M367.988 512.021c-16.528 0-32.916-2.922-48.941-8.744-70.598-25.646-136.128-67.416-189.508-120.795S34.389 263.572 8.744 192.974c-8.241-22.688-10.673-46.108-7.226-69.612 3.229-22.016 11.757-43.389 24.663-61.809 12.963-18.501 30.245-33.889 49.977-44.5C97.2 5.738 120.167 0 144.423 0a16.002 16.002 0 0 1 15.645 12.647l25.114 117.199a16.004 16.004 0 0 1-4.331 14.667l-42.913 42.912c40.482 80.486 106.17 146.174 186.656 186.656l42.912-42.913a16.01 16.01 0 0 1 14.667-4.331l117.199 25.114a16 16 0 0 1 12.647 15.645c0 24.256-5.738 47.224-17.054 68.266-10.611 19.732-25.999 37.014-44.5 49.977-18.419 12.906-39.792 21.434-61.809 24.663a142.318 142.318 0 0 1-20.668 1.519zM131.639 32.7c-31.995 3.532-60.393 20.302-79.251 47.217-21.206 30.265-26.151 67.49-13.567 102.132C88.125 317.775 194.246 423.896 329.972 473.2c34.641 12.584 71.866 7.64 102.132-13.567 26.915-18.858 43.685-47.256 47.217-79.251l-95.341-20.43-44.816 44.816a15.998 15.998 0 0 1-18.117 3.168c-95.19-44.72-172.242-121.772-216.962-216.962a15.999 15.999 0 0 1 3.168-18.117l44.816-44.816z"/></symbol><symbol id="pinterest" viewBox="0 0 24 24"><path d="M12.326 0C5.747.001 2.25 4.216 2.25 8.812c0 2.131 1.191 4.79 3.098 5.633.544.245.472-.054.94-1.844a.425.425 0 0 0-.102-.417c-2.726-3.153-.532-9.635 5.751-9.635 9.093 0 7.394 12.582 1.582 12.582-1.498 0-2.614-1.176-2.261-2.631.428-1.733 1.266-3.596 1.266-4.845 0-3.148-4.69-2.681-4.69 1.49 0 1.289.456 2.159.456 2.159S6.781 17.4 6.501 18.539c-.474 1.928.064 5.049.111 5.318.029.148.195.195.288.073.149-.195 1.973-2.797 2.484-4.678.186-.685.949-3.465.949-3.465.503.908 1.953 1.668 3.498 1.668 4.596 0 7.918-4.04 7.918-9.053C21.733 3.596 17.62 0 12.326 0z"/></symbol><symbol id="plug" viewBox="0 0 512 512"><path d="M282.2 145.5L227 90.4l9.9-9.9c4.8-4.8 4.8-12.5 0-17.3-4.8-4.8-12.5-4.8-17.3 0l-40.5 40.5-67-67c-4.8-4.8-12.5-4.8-17.3 0-4.8 4.8-4.8 12.5 0 17.3l67 67-62.6 62.6-67-67c-4.8-4.8-12.5-4.8-17.3 0-4.8 4.8-4.8 12.5 0 17.3l67 67-40.5 40.5c-4.8 4.8-4.8 12.5 0 17.3 2.4 2.4 5.5 3.6 8.7 3.6s6.3-1.2 8.7-3.6l9.9-9.9 55.1 55.1c21.8 21.8 50.5 32.7 79.2 32.7 11.8 0 23.7-2 35-5.7l31.5 31.5c5.8 5.7 13.3 8.6 20.9 8.6 7.6 0 15.1-2.9 20.9-8.6l6.1-6.1 3.7 3.7c20.7 20.7 54.3 20.7 75 0l31.4-31.4c11.1-11.1 29.2-11.1 40.4 0 11.1 11.1 11.1 29.2 0 40.4l-31.4 31.5c-10 10-15.5 23.3-15.5 37.5s5.5 27.5 15.5 37.5c2.4 2.4 5.5 3.6 8.7 3.6s6.3-1.2 8.7-3.6c4.8-4.8 4.8-12.5 0-17.3-5.4-5.4-8.4-12.6-8.4-20.2s3-14.8 8.4-20.2l31.4-31.5c20.7-20.7 20.7-54.3 0-75-20.7-20.7-54.3-20.7-75 0l-31.4 31.4c-11.1 11.1-29.2 11.1-40.4 0l-3.7-3.7 6.1-6.1c5.6-5.6 8.6-13 8.6-20.9 0-7.9-3.1-15.3-8.6-20.9l-31.5-31.5c12.6-38.8 3.6-83.2-27.2-114.1zm-141 141.1L86 231.4l123.7-123.7 55.1 55.1c34.1 34.1 34.1 89.6 0 123.7-34 34.2-89.5 34.2-123.6.1zm182.2 21.9c1.3 1.3 1.5 2.8 1.5 3.5 0 .8-.2 2.3-1.5 3.5L293.9 345c-2 2-5.1 2-7.1 0l-25.1-25c7.3-4.5 14.2-9.8 20.5-16.1s11.6-13.2 16.1-20.5l25.1 25.1z"/></symbol><symbol id="right-arrow" viewBox="0 0 490.8 490.8"><path d="M135.685 3.128c-4.237-4.093-10.99-3.975-15.083.262-3.992 4.134-3.992 10.687 0 14.82l227.115 227.136-227.136 227.115c-4.237 4.093-4.354 10.845-.262 15.083 4.093 4.237 10.845 4.354 15.083.262.089-.086.176-.173.262-.262l234.667-234.667c4.164-4.165 4.164-10.917 0-15.083L135.685 3.128z" fill="#f44336"/><path d="M128.133 490.68a10.667 10.667 0 1 1-7.552-18.219l227.136-227.115L120.581 18.232c-4.171-4.171-4.171-10.933 0-15.104 4.171-4.171 10.933-4.171 15.104 0l234.667 234.667c4.164 4.165 4.164 10.917 0 15.083L135.685 487.544a10.663 10.663 0 0 1-7.552 3.136z"/></symbol><symbol id="rss" viewBox="0 0 19.875 20" preserveAspectRatio="xMidYMid"><path d="M19.863 19.992h-3.649c.001-.079.006-.155.006-.232 0-8.775-7.264-16.019-16.067-16.019-.05 0-.102.004-.153.004V.029C.051.029.103.025.153.025c10.844 0 19.716 8.925 19.716 19.735 0 .077-.004.153-.006.232zM2.9 14.18a2.895 2.895 0 0 1 2.899 2.891A2.893 2.893 0 0 1 2.9 19.962 2.894 2.894 0 0 1 0 17.071a2.897 2.897 0 0 1 2.9-2.891zM.153 10.378c-.05 0-.102.007-.153.008V6.697c.051-.001.103-.009.153-.009 7.144 0 13.086 5.949 13.086 13.072 0 .079-.011.153-.013.232H9.525c.002-.079.012-.153.012-.232 0-5.087-4.281-9.382-9.384-9.382z" class="cls-1"/></symbol><symbol id="skype-logo" viewBox="0 0 329.978 329.978"><path d="M309.644 192.877a147.95 147.95 0 0 0 2.648-27.888c0-81.353-65.954-147.302-147.304-147.302-9.537 0-18.858.917-27.891 2.649-32.52-28.348-81.894-27.063-112.86 3.902-30.967 30.964-32.253 80.341-3.902 112.863a148.025 148.025 0 0 0-2.648 27.888c0 81.354 65.953 147.303 147.302 147.303 9.538 0 18.86-.917 27.894-2.649 32.518 28.348 81.893 27.063 112.859-3.902 30.963-30.965 32.251-80.342 3.902-112.864zm-141.849 62.838c-43.627 0-79.982-19.5-79.982-43.298 0-10.575 5.946-20.163 19.495-20.163 20.826 0 22.811 29.746 58.511 29.746 17.182 0 28.091-7.602 28.091-17.515 0-12.231-10.576-14.213-27.762-18.509l-28.424-6.939c-28.099-6.943-49.911-18.51-49.911-50.902 0-39.332 38.998-53.873 72.381-53.873 36.691 0 73.708 14.541 73.708 36.684 0 11.236-7.608 21.158-20.163 21.158-18.841 0-19.507-22.146-49.907-22.146-16.855 0-27.762 4.626-27.762 14.874 0 11.236 10.907 13.877 25.784 17.185l20.156 4.629c27.428 6.275 60.156 17.845 60.156 51.564 0 39.325-38.016 57.505-74.371 57.505z"/></symbol><symbol id="star" viewBox="0 0 306 306"><path d="M153 230.775l94.35 68.85-35.7-112.2 94.35-66.3H191.25L153 6.375l-38.25 114.75H0l94.35 66.3-35.7 112.2z"/></symbol><symbol id="tools" viewBox="0 0 511 511.99968"><path d="M347.34 155.148c-5.52 0-10 4.47-10 9.997 0 5.523 4.48 10 10 10 5.531 0 10-4.477 10-10a9.988 9.988 0 0 0-10-9.997zm0 0M165.645 336.84c-5.532 0-10 4.48-10 10a9.99 9.99 0 0 0 10 10c5.52 0 10-4.469 10-10 0-5.52-4.48-10-10-10zm0 0"/><path d="M500.059 61.52a9.992 9.992 0 0 0-9.36 2.695L449.242 106h-19.875l-21.879-22.668V63.18l40.864-41.473a9.993 9.993 0 0 0 2.601-9.336 9.994 9.994 0 0 0-6.531-7.156C434.156 1.754 423.414 0 412.488 0c-32.57 0-62.16 15.188-81.183 41.668-17.805 24.789-23.293 55.168-15.43 84.242l-73.66 73.66-122.719-123V52.43a9.998 9.998 0 0 0-4.855-8.575L43.934 1.425A9.992 9.992 0 0 0 31.719 2.93L3.438 31.207a10.01 10.01 0 0 0-1.504 12.219l42.421 70.707a10 10 0 0 0 8.57 4.855l24.134.008 122.73 123-73.379 73.379c-29.074-7.86-59.469-2.363-84.27 15.453C15.677 349.84.5 379.422.5 411.992c0 10.922 1.754 21.668 5.215 31.93a10 10 0 0 0 16.574 3.852l41.453-41.782h19.985l22.77 22.77v19.984L64.714 490.2a10 10 0 0 0 3.851 16.574c10.262 3.461 21.008 5.215 31.93 5.215 32.57 0 62.149-15.18 81.164-41.644 17.817-24.801 23.313-55.192 15.453-84.266l58.934-58.933 13.5 14.664-6.195 6.191c-3.907 3.906-3.907 10.238 0 14.145 3.906 3.902 10.234 3.902 14.144 0l5.61-5.61L409.77 494.121c.093.102.19.2.289.297 23.437 23.437 61.41 23.445 84.859-.004 23.383-23.394 23.383-61.46 0-84.855-.102-.102-.207-.2-.313-.297l-137.8-126.422 5.547-5.547c3.906-3.902 3.906-10.234 0-14.14s-10.235-3.907-14.145 0l-6.152 6.156-14.692-13.485 59.219-59.219a100.198 100.198 0 0 0 25.906 3.391c55.14 0 99.996-44.86 99.996-99.996 0-10.926-1.754-21.668-5.214-31.934a9.99 9.99 0 0 0-7.211-6.546zM88.285 101.934c-1.875-1.88-4.418-2.836-7.074-2.836l-22.617-.008-35.492-59.258L40.34 22.594l59.156 35.5V80.71a9.997 9.997 0 0 0 2.922 7.062l125.656 125.942-14.144 14.14zm254.363 195.062l138.27 126.848c15.445 15.61 15.398 40.883-.145 56.433-15.578 15.578-40.796 15.625-56.437.137L297.258 342.38zm-14.75-13.535L283.7 327.652l-13.5-14.664 43.008-43.011zm84.59-103.465a79.917 79.917 0 0 1-25.558-4.168 10.017 10.017 0 0 0-10.262 2.406c-50.133 50.133-158.156 158.153-197.934 197.934a9.998 9.998 0 0 0-2.406 10.266c8.313 24.683 4.336 51.011-10.914 72.242-15.207 21.168-38.871 33.312-64.918 33.312-2.926 0-5.836-.16-8.719-.468l31.762-31.516a9.997 9.997 0 0 0 2.957-7.098v-28.289a10 10 0 0 0-2.93-7.07l-28.628-28.629a10 10 0 0 0-7.07-2.93h-28.29a10.012 10.012 0 0 0-7.101 2.957l-31.512 31.762a80.897 80.897 0 0 1-.469-8.719c0-26.05 12.14-49.71 33.313-64.918 21.226-15.25 47.558-19.23 72.246-10.914a9.993 9.993 0 0 0 10.261-2.406c.551-.547 197.793-197.793 197.934-197.934a9.999 9.999 0 0 0 2.406-10.261c-8.316-24.684-4.347-51.004 10.89-72.22C362.767 32.149 386.435 20 412.485 20c3.016 0 6.012.168 8.98.496l-31.1 31.566a9.993 9.993 0 0 0-2.876 7.016v28.29a9.988 9.988 0 0 0 2.805 6.944l27.629 28.63a9.992 9.992 0 0 0 7.195 3.054h28.29a9.994 9.994 0 0 0 7.097-2.957l31.512-31.758c.312 2.883.468 5.793.468 8.719 0 44.11-35.886 79.996-79.996 79.996zm0 0"/><path d="M311.988 186.355L186.852 311.492c-3.903 3.903-3.903 10.235 0 14.14 3.906 3.907 10.238 3.907 14.144 0l125.137-125.136c3.906-3.902 3.906-10.234 0-14.14s-10.238-3.907-14.145 0zm0 0M438.355 452c3.907 3.895 10.239 3.895 14.145-.023 3.898-3.91 3.887-10.243-.023-14.141l-90.137-89.848c-3.91-3.898-10.246-3.886-14.14.024-3.903 3.914-3.891 10.242.019 14.14zm0 0"/></symbol><symbol id="tumblr" viewBox="0 0 11.625 20" preserveAspectRatio="xMidYMid"><path d="M9.286 16.713c-1.705 0-2.63-1.332-2.63-2.36V8.358h4.138V4.993H6.656V-.002H3.763c0 4.341-3.751 5.146-3.751 5.146v3.177h2.491v7.134c0 2.477 2.274 4.533 5.04 4.533s4.089-1.105 4.089-1.105v-3.274s-.64 1.104-2.346 1.104z"/></symbol><symbol id="twitter (1)" viewBox="0 0 512 512"><path d="M512 97.248c-19.04 8.352-39.328 13.888-60.48 16.576 21.76-12.992 38.368-33.408 46.176-58.016-20.288 12.096-42.688 20.64-66.56 25.408C411.872 60.704 384.416 48 354.464 48c-58.112 0-104.896 47.168-104.896 104.992 0 8.32.704 16.32 2.432 23.936-87.264-4.256-164.48-46.08-216.352-109.792-9.056 15.712-14.368 33.696-14.368 53.056 0 36.352 18.72 68.576 46.624 87.232-16.864-.32-33.408-5.216-47.424-12.928v1.152c0 51.008 36.384 93.376 84.096 103.136-8.544 2.336-17.856 3.456-27.52 3.456-6.72 0-13.504-.384-19.872-1.792 13.6 41.568 52.192 72.128 98.08 73.12-35.712 27.936-81.056 44.768-130.144 44.768-8.608 0-16.864-.384-25.12-1.44C46.496 446.88 101.6 464 161.024 464c193.152 0 298.752-160 298.752-298.688 0-4.64-.16-9.12-.384-13.568 20.832-14.784 38.336-33.248 52.608-54.496z"/></symbol><symbol id="up-arrow" viewBox="0 0 490.523 490.523"><path d="M487.411 355.047L252.744 120.38c-4.165-4.164-10.917-4.164-15.083 0L2.994 355.047c-4.093 4.237-3.976 10.99.262 15.083a10.666 10.666 0 0 0 14.821 0l227.115-227.115 227.115 227.136c4.237 4.093 10.99 3.976 15.083-.261 3.993-4.134 3.993-10.688 0-14.821l.021-.022z" fill="#ffc107"/><path d="M479.859 373.266a10.663 10.663 0 0 1-7.552-3.115L245.192 143.015 18.077 370.151c-4.237 4.093-10.99 3.976-15.083-.262a10.666 10.666 0 0 1 0-14.821l234.667-234.667c4.165-4.164 10.917-4.164 15.083 0l234.667 234.667c4.159 4.172 4.148 10.926-.024 15.085a10.667 10.667 0 0 1-7.528 3.113z"/></symbol><symbol id="video-game" viewBox="0 0 512.007 512.007"><path d="M46.014 512.004c24.825 0 55.036-18.72 89.792-55.639 21.155-22.472 49.462-35.361 77.663-35.361h85.07c28.412 0 57.818 13.219 78.663 35.361 35.246 37.439 64.29 55.639 88.792 55.639 13.698 0 45.602-7.299 46.01-74.909.42-69.284-32.59-177.128-82.398-227.239-19.029-19.145-39.217-28.852-60.003-28.852-26.013 0-38.16 8.287-48.876 15.599-8.09 5.519-15.771 10.758-31.977 13.802 6.704-10.598 12.254-23.427 12.254-36.902 0-31.79-30.865-60.04-34.999-63.68-6.583-6.01-25.001-26.38-25.001-42.32 0-15.723 18.434-35.525 24.896-41.228 6.217-5.458 6.842-14.921 1.392-21.15-5.456-6.235-14.932-6.866-21.166-1.411-3.595 3.146-35.123 31.66-35.123 63.789 0 31.966 31.341 61.357 34.915 64.603l.208.185c6.454 5.647 24.877 25.34 24.877 41.211 0 13.224-13.039 29.332-21.016 37.5h-23.254c-18.626-2.921-26.805-8.5-35.453-14.401-10.716-7.312-22.863-15.599-48.876-15.599-20.786 0-40.974 9.707-60.003 28.852C32.594 259.966-.416 367.81.004 437.094c.409 67.61 32.312 74.91 46.01 74.91zm57.665-280.999c13.191-13.272 26.221-20.001 38.726-20.001 16.754 0 22.806 4.13 31.968 10.381 20.861 14.234 41.347 19.619 51.224 19.619h60.813c10.245 0 30.674-5.598 51.224-19.619 9.162-6.251 15.214-10.381 31.968-10.381 12.505 0 25.534 6.729 38.726 20.001 43.886 44.152 74.051 143.953 73.676 205.908-.136 22.444-5.139 45.091-16.011 45.091-7.052 0-27.691-4.502-66.948-46.203-26.801-28.469-63.434-44.797-100.506-44.797h-85.07c-36.437 0-72.706 16.328-99.506 44.797-39.257 41.701-60.596 46.203-67.948 46.203-10.872 0-15.875-22.647-16.011-45.091-.376-61.955 29.79-161.756 73.675-205.908z"/><path d="M106.003 331.004h15v15c0 8.284 6.716 15 15 15s15-6.716 15-15v-15h15c8.284 0 15-6.716 15-15s-6.716-15-15-15h-15v-15c0-8.284-6.716-15-15-15s-15 6.716-15 15v15h-15c-8.284 0-15 6.716-15 15s6.716 15 15 15z"/><circle cx="376.003" cy="286.004" r="15"/><circle cx="376.003" cy="346.004" r="15"/><circle cx="346.003" cy="316.004" r="15"/><circle cx="406.003" cy="316.004" r="15"/><path d="M226.003 331.004h60c8.284 0 15-6.716 15-15s-6.716-15-15-15h-60c-8.284 0-15 6.716-15 15s6.716 15 15 15z"/></symbol><symbol id="vimeo" viewBox="0 0 299.999 299.999"><path d="M298.723 68.78c2.238-12.561 2.188-25.477-5.57-35.245-10.824-13.696-33.863-14.2-49.646-11.783-12.84 1.963-56.269 21.124-71.047 66.996 26.182-1.99 39.904 1.887 37.385 30.713-1.055 12.061-7.148 25.274-13.947 37.941-7.857 14.603-22.583 43.277-41.894 22.608-17.394-18.602-16.088-54.179-20.065-77.871-2.215-13.292-4.557-29.857-8.912-43.529-3.753-11.757-12.359-25.932-22.884-29.004-11.304-3.322-25.28 1.863-33.487 6.698C42.522 51.661 22.605 73.513 0 91.54c3.68 7.884 5.687 12.992 12.283 13.949 15.561 2.292 30.391-14.502 40.736 2.971 6.294 10.675 8.26 22.381 12.287 33.891 5.387 15.328 9.541 32.02 13.947 49.646 7.452 29.857 16.618 74.47 42.424 85.398 13.166 5.591 32.957-1.889 42.977-7.831 27.14-16.061 48.289-39.348 66.391-63.04 41.389-56.071 64.225-119.591 67.678-137.744z" fill-rule="evenodd" clip-rule="evenodd"/></symbol><symbol id="vision" viewBox="0 0 60 60"><path d="M59 28h-2.18c-.951-5.666-5.85-10-11.748-10-5.822 0-10.696 4.119-11.825 9.579-.971-.814-2.079-1.246-3.247-1.246-1.167 0-2.274.432-3.245 1.245C25.639 22.118 20.825 18 15.072 18 8.756 18 3.565 22.851 3.051 29H1a1 1 0 1 0 0 2h2.051c.514 6.149 5.705 11 12.021 11 6.467 0 11.736-5.207 11.911-11.671.853-1.285 1.915-1.996 3.017-1.996 1.102 0 2.164.712 3.017 1.996C33.195 36.793 38.528 42 45.072 42 51.649 42 57 36.617 57 30h2a1 1 0 1 0 0-2zM15.072 40C9.519 40 5 35.514 5 30s4.519-10 10.072-10C20.64 20 25 24.393 25 30s-4.36 10-9.928 10zm30 0C39.519 40 35 35.514 35 30s4.519-10 10.072-10C50.64 20 55 24.393 55 30s-4.36 10-9.928 10z"/></symbol><symbol id="wifi" viewBox="0 0 512 512"><path d="M10.667 0C4.779 0 0 4.779 0 10.667V96c0 5.888 4.779 10.667 10.667 10.667 217.621 0 394.667 177.045 394.667 394.667 0 5.888 4.779 10.667 10.667 10.667h85.333c5.888 0 10.667-4.779 10.667-10.667C512 224.896 287.104 0 10.667 0z"/><path d="M10.667 170.667C4.779 170.667 0 175.445 0 181.333v85.333c0 5.888 4.779 10.667 10.667 10.667 123.52 0 224 100.48 224 224 0 5.888 4.779 10.667 10.667 10.667h85.333c5.888 0 10.667-4.779 10.667-10.667-.001-182.336-148.331-330.666-330.667-330.666z"/><circle cx="74.667" cy="437.333" r="74.667"/></symbol></svg>